####
#
# OBJ File Generated by Meshlab
#
####
# Object box.obj
#
# Vertices: 8
# Faces: 6
#
####
vn -0.577350 -0.577350 -0.577350
v -0.500000 -0.500000 -0.500000
vn 0.333333 -0.666667 -0.666667
v 0.500000 -0.500000 -0.500000
vn -0.666667 0.333333 -0.666667
v -0.500000 0.500000 -0.500000
vn 0.666667 0.666667 -0.333333
v 0.500000 0.500000 -0.500000
vn -0.666667 -0.666667 0.333333
v -0.500000 -0.500000 0.500000
vn 0.666667 -0.333333 0.666667
v 0.500000 -0.500000 0.500000
vn -0.333333 0.666667 0.666667
v -0.500000 0.500000 0.500000
vn 0.577350 0.577350 0.577350
v 0.500000 0.500000 0.500000
# 8 vertices, 0 vertices normals

f 1//1 3//3 4//4 2//2
f 1//1 5//5 7//7 3//3
f 1//1 2//2 6//6 5//5
f 8//8 7//7 5//5 6//6
f 8//8 4//4 3//3 7//7
f 8//8 6//6 2//2 4//4
# 6 faces, 0 coords texture

# End of File
